<?xml version="1.0" standalone="no"?>
<!DOCTYPE svg PUBLIC "-//W3C//DTD SVG 20010904//EN"
 "http://www.w3.org/TR/2001/REC-SVG-20010904/DTD/svg10.dtd">
<svg version="1.0" xmlns="http://www.w3.org/2000/svg"
 width="200.000000pt" height="200.000000pt" viewBox="0 0 200.000000 200.000000"
 preserveAspectRatio="xMidYMid meet">

<g transform="translate(0.000000,200.000000) scale(0.100000,-0.100000)"
fill="#000000" stroke="none">
<path d="M841 1506 c-68 -41 -128 -80 -132 -88 -5 -7 -9 -79 -9 -160 l0 -147
-127 -76 c-71 -43 -131 -82 -135 -89 -4 -6 -8 -86 -8 -177 0 -145 2 -169 18
-187 26 -30 249 -162 274 -162 12 0 79 34 150 76 l128 76 124 -76 c69 -42 135
-76 147 -76 25 0 248 131 276 162 15 17 18 43 21 178 2 98 -1 166 -7 178 -6
11 -54 46 -108 77 -54 32 -113 69 -130 82 l-33 24 0 148 c0 128 -2 150 -17
163 -10 8 -68 45 -129 81 -79 47 -122 67 -145 67 -24 0 -70 -22 -158 -74z
m407 -266 c1 -63 1 -124 -2 -135 -7 -27 -212 -153 -227 -138 -6 6 -8 62 -7
138 l3 129 100 63 c55 34 107 62 115 60 12 -2 16 -24 18 -117z m-278 -487 c0
-71 -4 -133 -8 -139 -11 -17 -190 -124 -208 -124 -12 0 -14 21 -12 137 l3 137
95 57 c52 32 103 59 113 59 15 0 17 -13 17 -127z m550 0 c0 -71 -4 -133 -8
-139 -10 -16 -190 -124 -206 -124 -20 0 -23 15 -25 130 -1 68 3 113 11 128 14
25 183 131 211 132 15 0 17 -13 17 -127z"/>
</g>
</svg>
